<?xml version="1.0" standalone="no"?>
<!DOCTYPE svg PUBLIC "-//W3C//DTD SVG 20010904//EN"
 "http://www.w3.org/TR/2001/REC-SVG-20010904/DTD/svg10.dtd">
<svg version="1.0" xmlns="http://www.w3.org/2000/svg"
 width="1146.000000pt" height="1280.000000pt" viewBox="0 0 1146.000000 1280.000000"
 preserveAspectRatio="xMidYMid meet">
<metadata>
Created by potrace 1.15, written by Peter Selinger 2001-2017
</metadata>
<g transform="translate(0.000000,1280.000000) scale(0.100000,-0.100000)"
fill="#d6d6d6" stroke="none">
<path d="M11050 12794 c-196 -38 -421 -174 -625 -379 -71 -72 -152 -149 -180
-171 -136 -111 -352 -236 -544 -315 -225 -93 -375 -140 -874 -274 -49 -13 -94
-28 -100 -33 -627 -491 -872 -720 -992 -927 -80 -138 -198 -234 -507 -410 -76
-43 -176 -108 -223 -144 -143 -110 -174 -130 -325 -202 -80 -39 -179 -87 -220
-107 -169 -82 -253 -150 -383 -310 -143 -174 -357 -360 -747 -647 -248 -183
-415 -315 -515 -404 -128 -116 -206 -152 -328 -153 -120 0 -200 42 -238 127
-24 53 -24 147 0 200 26 58 103 123 220 186 174 93 235 130 430 261 482 323
839 603 1214 952 148 138 148 138 285 201 75 34 298 126 494 205 l358 142 15
51 c70 232 -31 433 -254 508 -98 34 -199 32 -271 -3 -80 -39 -117 -74 -241
-221 -114 -137 -175 -190 -238 -207 -21 -5 -109 -9 -197 -7 -155 2 -161 1
-224 -26 -271 -118 -464 -155 -983 -188 l-188 -11 -97 -56 c-270 -156 -645
-277 -1062 -346 -237 -39 -324 -46 -563 -46 -261 0 -312 -7 -406 -54 -26 -14
-72 -47 -102 -73 -30 -27 -78 -69 -108 -93 -29 -24 -120 -121 -201 -215 -166
-192 -191 -216 -274 -274 -74 -51 -112 -53 -178 -12 -79 50 -125 134 -195 356
-46 145 -80 236 -141 373 -66 147 -95 196 -155 259 -63 66 -132 100 -234 112
-43 5 -107 15 -143 21 -36 7 -98 9 -140 6 -312 -25 -562 -214 -632 -479 -66
-251 -42 -447 85 -692 51 -98 52 -101 43 -154 -6 -35 -5 -73 2 -114 34 -181
173 -317 342 -333 110 -11 195 -66 342 -221 46 -48 124 -130 174 -183 l90 -95
17 -95 c26 -148 35 -260 52 -610 24 -497 41 -617 129 -884 65 -196 83 -238
139 -324 99 -153 248 -295 483 -461 66 -47 151 -107 189 -135 186 -133 292
-191 425 -234 74 -23 101 -27 210 -27 78 0 133 5 146 12 12 7 55 40 95 74 183
153 290 199 467 199 161 0 326 62 407 152 59 66 80 129 71 225 -7 82 3 112 52
159 56 54 217 106 236 76 12 -19 23 -817 16 -1152 l-7 -325 -35 -55 c-99 -154
-192 -391 -223 -565 -27 -158 -39 -586 -26 -1000 13 -395 35 -850 52 -1030 16
-175 24 -915 11 -1026 -40 -331 -253 -572 -645 -728 -85 -34 -240 -80 -406
-121 -136 -34 -276 -90 -334 -134 -37 -28 -74 -87 -92 -143 l-6 -23 128 0
c371 0 992 27 1293 56 218 21 247 20 370 -10 203 -50 283 -45 351 23 71 70 79
184 29 406 -34 152 -34 128 -6 465 41 492 109 843 230 1184 25 72 50 134 55
139 22 22 117 29 496 36 376 8 403 10 457 30 72 28 131 90 153 163 13 40 18
103 20 263 16 976 42 1319 126 1665 11 47 43 195 70 330 67 328 161 757 319
1455 168 743 360 1624 360 1650 0 1 156 148 348 327 529 496 830 810 1057
1103 38 50 115 146 171 215 55 69 197 251 314 405 364 478 479 613 736 865
174 170 194 193 244 284 64 115 126 189 184 218 22 11 82 53 131 92 205 161
400 273 576 331 l96 31 172 159 c180 166 263 255 333 358 58 85 101 192 101
247 -1 104 -85 235 -180 280 -47 22 -166 35 -223 24z"/>
</g>
</svg>
